%TF.GenerationSoftware,KiCad,Pcbnew,8.0.5*%
%TF.CreationDate,2024-10-03T09:22:46-06:00*%
%TF.ProjectId,mini_ac,6d696e69-5f61-4632-9e6b-696361645f70,rev?*%
%TF.SameCoordinates,Original*%
%TF.FileFunction,Legend,Top*%
%TF.FilePolarity,Positive*%
%FSLAX46Y46*%
G04 Gerber Fmt 4.6, Leading zero omitted, Abs format (unit mm)*
G04 Created by KiCad (PCBNEW 8.0.5) date 2024-10-03 09:22:46*
%MOMM*%
%LPD*%
G01*
G04 APERTURE LIST*
%ADD10C,0.150000*%
%ADD11C,0.120000*%
G04 APERTURE END LIST*
D10*
X127354819Y-88833333D02*
X128069104Y-88833333D01*
X128069104Y-88833333D02*
X128211961Y-88880952D01*
X128211961Y-88880952D02*
X128307200Y-88976190D01*
X128307200Y-88976190D02*
X128354819Y-89119047D01*
X128354819Y-89119047D02*
X128354819Y-89214285D01*
X127688152Y-87928571D02*
X128354819Y-87928571D01*
X127307200Y-88166666D02*
X128021485Y-88404761D01*
X128021485Y-88404761D02*
X128021485Y-87785714D01*
X109348152Y-95571429D02*
X110348152Y-95571429D01*
X109395771Y-95571429D02*
X109348152Y-95476191D01*
X109348152Y-95476191D02*
X109348152Y-95285715D01*
X109348152Y-95285715D02*
X109395771Y-95190477D01*
X109395771Y-95190477D02*
X109443390Y-95142858D01*
X109443390Y-95142858D02*
X109538628Y-95095239D01*
X109538628Y-95095239D02*
X109824342Y-95095239D01*
X109824342Y-95095239D02*
X109919580Y-95142858D01*
X109919580Y-95142858D02*
X109967200Y-95190477D01*
X109967200Y-95190477D02*
X110014819Y-95285715D01*
X110014819Y-95285715D02*
X110014819Y-95476191D01*
X110014819Y-95476191D02*
X109967200Y-95571429D01*
X109967200Y-94285715D02*
X110014819Y-94380953D01*
X110014819Y-94380953D02*
X110014819Y-94571429D01*
X110014819Y-94571429D02*
X109967200Y-94666667D01*
X109967200Y-94666667D02*
X109871961Y-94714286D01*
X109871961Y-94714286D02*
X109491009Y-94714286D01*
X109491009Y-94714286D02*
X109395771Y-94666667D01*
X109395771Y-94666667D02*
X109348152Y-94571429D01*
X109348152Y-94571429D02*
X109348152Y-94380953D01*
X109348152Y-94380953D02*
X109395771Y-94285715D01*
X109395771Y-94285715D02*
X109491009Y-94238096D01*
X109491009Y-94238096D02*
X109586247Y-94238096D01*
X109586247Y-94238096D02*
X109681485Y-94714286D01*
X110014819Y-93666667D02*
X109967200Y-93761905D01*
X109967200Y-93761905D02*
X109871961Y-93809524D01*
X109871961Y-93809524D02*
X109014819Y-93809524D01*
X109348152Y-93428571D02*
X109348152Y-93047619D01*
X109014819Y-93285714D02*
X109871961Y-93285714D01*
X109871961Y-93285714D02*
X109967200Y-93238095D01*
X109967200Y-93238095D02*
X110014819Y-93142857D01*
X110014819Y-93142857D02*
X110014819Y-93047619D01*
X110014819Y-92714285D02*
X109348152Y-92714285D01*
X109014819Y-92714285D02*
X109062438Y-92761904D01*
X109062438Y-92761904D02*
X109110057Y-92714285D01*
X109110057Y-92714285D02*
X109062438Y-92666666D01*
X109062438Y-92666666D02*
X109014819Y-92714285D01*
X109014819Y-92714285D02*
X109110057Y-92714285D01*
X109967200Y-91857143D02*
X110014819Y-91952381D01*
X110014819Y-91952381D02*
X110014819Y-92142857D01*
X110014819Y-92142857D02*
X109967200Y-92238095D01*
X109967200Y-92238095D02*
X109871961Y-92285714D01*
X109871961Y-92285714D02*
X109491009Y-92285714D01*
X109491009Y-92285714D02*
X109395771Y-92238095D01*
X109395771Y-92238095D02*
X109348152Y-92142857D01*
X109348152Y-92142857D02*
X109348152Y-91952381D01*
X109348152Y-91952381D02*
X109395771Y-91857143D01*
X109395771Y-91857143D02*
X109491009Y-91809524D01*
X109491009Y-91809524D02*
X109586247Y-91809524D01*
X109586247Y-91809524D02*
X109681485Y-92285714D01*
X110014819Y-91380952D02*
X109348152Y-91380952D01*
X109538628Y-91380952D02*
X109443390Y-91333333D01*
X109443390Y-91333333D02*
X109395771Y-91285714D01*
X109395771Y-91285714D02*
X109348152Y-91190476D01*
X109348152Y-91190476D02*
X109348152Y-91095238D01*
X110014819Y-89857142D02*
X109967200Y-89952380D01*
X109967200Y-89952380D02*
X109871961Y-89999999D01*
X109871961Y-89999999D02*
X109014819Y-89999999D01*
X109967200Y-89095237D02*
X110014819Y-89190475D01*
X110014819Y-89190475D02*
X110014819Y-89380951D01*
X110014819Y-89380951D02*
X109967200Y-89476189D01*
X109967200Y-89476189D02*
X109871961Y-89523808D01*
X109871961Y-89523808D02*
X109491009Y-89523808D01*
X109491009Y-89523808D02*
X109395771Y-89476189D01*
X109395771Y-89476189D02*
X109348152Y-89380951D01*
X109348152Y-89380951D02*
X109348152Y-89190475D01*
X109348152Y-89190475D02*
X109395771Y-89095237D01*
X109395771Y-89095237D02*
X109491009Y-89047618D01*
X109491009Y-89047618D02*
X109586247Y-89047618D01*
X109586247Y-89047618D02*
X109681485Y-89523808D01*
X109348152Y-88761903D02*
X109348152Y-88380951D01*
X110014819Y-88619046D02*
X109157676Y-88619046D01*
X109157676Y-88619046D02*
X109062438Y-88571427D01*
X109062438Y-88571427D02*
X109014819Y-88476189D01*
X109014819Y-88476189D02*
X109014819Y-88380951D01*
X109348152Y-88190474D02*
X109348152Y-87809522D01*
X109014819Y-88047617D02*
X109871961Y-88047617D01*
X109871961Y-88047617D02*
X109967200Y-87999998D01*
X109967200Y-87999998D02*
X110014819Y-87904760D01*
X110014819Y-87904760D02*
X110014819Y-87809522D01*
X109348152Y-86714283D02*
X110348152Y-86714283D01*
X109395771Y-86714283D02*
X109348152Y-86619045D01*
X109348152Y-86619045D02*
X109348152Y-86428569D01*
X109348152Y-86428569D02*
X109395771Y-86333331D01*
X109395771Y-86333331D02*
X109443390Y-86285712D01*
X109443390Y-86285712D02*
X109538628Y-86238093D01*
X109538628Y-86238093D02*
X109824342Y-86238093D01*
X109824342Y-86238093D02*
X109919580Y-86285712D01*
X109919580Y-86285712D02*
X109967200Y-86333331D01*
X109967200Y-86333331D02*
X110014819Y-86428569D01*
X110014819Y-86428569D02*
X110014819Y-86619045D01*
X110014819Y-86619045D02*
X109967200Y-86714283D01*
X110014819Y-85666664D02*
X109967200Y-85761902D01*
X109967200Y-85761902D02*
X109919580Y-85809521D01*
X109919580Y-85809521D02*
X109824342Y-85857140D01*
X109824342Y-85857140D02*
X109538628Y-85857140D01*
X109538628Y-85857140D02*
X109443390Y-85809521D01*
X109443390Y-85809521D02*
X109395771Y-85761902D01*
X109395771Y-85761902D02*
X109348152Y-85666664D01*
X109348152Y-85666664D02*
X109348152Y-85523807D01*
X109348152Y-85523807D02*
X109395771Y-85428569D01*
X109395771Y-85428569D02*
X109443390Y-85380950D01*
X109443390Y-85380950D02*
X109538628Y-85333331D01*
X109538628Y-85333331D02*
X109824342Y-85333331D01*
X109824342Y-85333331D02*
X109919580Y-85380950D01*
X109919580Y-85380950D02*
X109967200Y-85428569D01*
X109967200Y-85428569D02*
X110014819Y-85523807D01*
X110014819Y-85523807D02*
X110014819Y-85666664D01*
X109967200Y-84952378D02*
X110014819Y-84857140D01*
X110014819Y-84857140D02*
X110014819Y-84666664D01*
X110014819Y-84666664D02*
X109967200Y-84571426D01*
X109967200Y-84571426D02*
X109871961Y-84523807D01*
X109871961Y-84523807D02*
X109824342Y-84523807D01*
X109824342Y-84523807D02*
X109729104Y-84571426D01*
X109729104Y-84571426D02*
X109681485Y-84666664D01*
X109681485Y-84666664D02*
X109681485Y-84809521D01*
X109681485Y-84809521D02*
X109633866Y-84904759D01*
X109633866Y-84904759D02*
X109538628Y-84952378D01*
X109538628Y-84952378D02*
X109491009Y-84952378D01*
X109491009Y-84952378D02*
X109395771Y-84904759D01*
X109395771Y-84904759D02*
X109348152Y-84809521D01*
X109348152Y-84809521D02*
X109348152Y-84666664D01*
X109348152Y-84666664D02*
X109395771Y-84571426D01*
X110014819Y-84095235D02*
X109348152Y-84095235D01*
X109014819Y-84095235D02*
X109062438Y-84142854D01*
X109062438Y-84142854D02*
X109110057Y-84095235D01*
X109110057Y-84095235D02*
X109062438Y-84047616D01*
X109062438Y-84047616D02*
X109014819Y-84095235D01*
X109014819Y-84095235D02*
X109110057Y-84095235D01*
X109348152Y-83761902D02*
X109348152Y-83380950D01*
X109014819Y-83619045D02*
X109871961Y-83619045D01*
X109871961Y-83619045D02*
X109967200Y-83571426D01*
X109967200Y-83571426D02*
X110014819Y-83476188D01*
X110014819Y-83476188D02*
X110014819Y-83380950D01*
X110014819Y-83047616D02*
X109348152Y-83047616D01*
X109014819Y-83047616D02*
X109062438Y-83095235D01*
X109062438Y-83095235D02*
X109110057Y-83047616D01*
X109110057Y-83047616D02*
X109062438Y-82999997D01*
X109062438Y-82999997D02*
X109014819Y-83047616D01*
X109014819Y-83047616D02*
X109110057Y-83047616D01*
X109348152Y-82666664D02*
X110014819Y-82428569D01*
X110014819Y-82428569D02*
X109348152Y-82190474D01*
X109967200Y-81428569D02*
X110014819Y-81523807D01*
X110014819Y-81523807D02*
X110014819Y-81714283D01*
X110014819Y-81714283D02*
X109967200Y-81809521D01*
X109967200Y-81809521D02*
X109871961Y-81857140D01*
X109871961Y-81857140D02*
X109491009Y-81857140D01*
X109491009Y-81857140D02*
X109395771Y-81809521D01*
X109395771Y-81809521D02*
X109348152Y-81714283D01*
X109348152Y-81714283D02*
X109348152Y-81523807D01*
X109348152Y-81523807D02*
X109395771Y-81428569D01*
X109395771Y-81428569D02*
X109491009Y-81380950D01*
X109491009Y-81380950D02*
X109586247Y-81380950D01*
X109586247Y-81380950D02*
X109681485Y-81857140D01*
X111166666Y-94894819D02*
X111166666Y-93894819D01*
X111166666Y-94275771D02*
X111261904Y-94228152D01*
X111261904Y-94228152D02*
X111452380Y-94228152D01*
X111452380Y-94228152D02*
X111547618Y-94275771D01*
X111547618Y-94275771D02*
X111595237Y-94323390D01*
X111595237Y-94323390D02*
X111642856Y-94418628D01*
X111642856Y-94418628D02*
X111642856Y-94704342D01*
X111642856Y-94704342D02*
X111595237Y-94799580D01*
X111595237Y-94799580D02*
X111547618Y-94847200D01*
X111547618Y-94847200D02*
X111452380Y-94894819D01*
X111452380Y-94894819D02*
X111261904Y-94894819D01*
X111261904Y-94894819D02*
X111166666Y-94847200D01*
X112499999Y-94894819D02*
X112499999Y-94371009D01*
X112499999Y-94371009D02*
X112452380Y-94275771D01*
X112452380Y-94275771D02*
X112357142Y-94228152D01*
X112357142Y-94228152D02*
X112166666Y-94228152D01*
X112166666Y-94228152D02*
X112071428Y-94275771D01*
X112499999Y-94847200D02*
X112404761Y-94894819D01*
X112404761Y-94894819D02*
X112166666Y-94894819D01*
X112166666Y-94894819D02*
X112071428Y-94847200D01*
X112071428Y-94847200D02*
X112023809Y-94751961D01*
X112023809Y-94751961D02*
X112023809Y-94656723D01*
X112023809Y-94656723D02*
X112071428Y-94561485D01*
X112071428Y-94561485D02*
X112166666Y-94513866D01*
X112166666Y-94513866D02*
X112404761Y-94513866D01*
X112404761Y-94513866D02*
X112499999Y-94466247D01*
X112833333Y-94228152D02*
X113214285Y-94228152D01*
X112976190Y-93894819D02*
X112976190Y-94751961D01*
X112976190Y-94751961D02*
X113023809Y-94847200D01*
X113023809Y-94847200D02*
X113119047Y-94894819D01*
X113119047Y-94894819D02*
X113214285Y-94894819D01*
X113404762Y-94228152D02*
X113785714Y-94228152D01*
X113547619Y-93894819D02*
X113547619Y-94751961D01*
X113547619Y-94751961D02*
X113595238Y-94847200D01*
X113595238Y-94847200D02*
X113690476Y-94894819D01*
X113690476Y-94894819D02*
X113785714Y-94894819D01*
X114500000Y-94847200D02*
X114404762Y-94894819D01*
X114404762Y-94894819D02*
X114214286Y-94894819D01*
X114214286Y-94894819D02*
X114119048Y-94847200D01*
X114119048Y-94847200D02*
X114071429Y-94751961D01*
X114071429Y-94751961D02*
X114071429Y-94371009D01*
X114071429Y-94371009D02*
X114119048Y-94275771D01*
X114119048Y-94275771D02*
X114214286Y-94228152D01*
X114214286Y-94228152D02*
X114404762Y-94228152D01*
X114404762Y-94228152D02*
X114500000Y-94275771D01*
X114500000Y-94275771D02*
X114547619Y-94371009D01*
X114547619Y-94371009D02*
X114547619Y-94466247D01*
X114547619Y-94466247D02*
X114071429Y-94561485D01*
X114976191Y-94894819D02*
X114976191Y-94228152D01*
X114976191Y-94418628D02*
X115023810Y-94323390D01*
X115023810Y-94323390D02*
X115071429Y-94275771D01*
X115071429Y-94275771D02*
X115166667Y-94228152D01*
X115166667Y-94228152D02*
X115261905Y-94228152D01*
X115500001Y-94228152D02*
X115738096Y-94894819D01*
X115976191Y-94228152D02*
X115738096Y-94894819D01*
X115738096Y-94894819D02*
X115642858Y-95132914D01*
X115642858Y-95132914D02*
X115595239Y-95180533D01*
X115595239Y-95180533D02*
X115500001Y-95228152D01*
X116309525Y-93990057D02*
X116357144Y-93942438D01*
X116357144Y-93942438D02*
X116452382Y-93894819D01*
X116452382Y-93894819D02*
X116690477Y-93894819D01*
X116690477Y-93894819D02*
X116785715Y-93942438D01*
X116785715Y-93942438D02*
X116833334Y-93990057D01*
X116833334Y-93990057D02*
X116880953Y-94085295D01*
X116880953Y-94085295D02*
X116880953Y-94180533D01*
X116880953Y-94180533D02*
X116833334Y-94323390D01*
X116833334Y-94323390D02*
X116261906Y-94894819D01*
X116261906Y-94894819D02*
X116880953Y-94894819D01*
X111000000Y-82348152D02*
X111000000Y-83348152D01*
X111000000Y-82395771D02*
X111095238Y-82348152D01*
X111095238Y-82348152D02*
X111285714Y-82348152D01*
X111285714Y-82348152D02*
X111380952Y-82395771D01*
X111380952Y-82395771D02*
X111428571Y-82443390D01*
X111428571Y-82443390D02*
X111476190Y-82538628D01*
X111476190Y-82538628D02*
X111476190Y-82824342D01*
X111476190Y-82824342D02*
X111428571Y-82919580D01*
X111428571Y-82919580D02*
X111380952Y-82967200D01*
X111380952Y-82967200D02*
X111285714Y-83014819D01*
X111285714Y-83014819D02*
X111095238Y-83014819D01*
X111095238Y-83014819D02*
X111000000Y-82967200D01*
X112047619Y-83014819D02*
X111952381Y-82967200D01*
X111952381Y-82967200D02*
X111904762Y-82919580D01*
X111904762Y-82919580D02*
X111857143Y-82824342D01*
X111857143Y-82824342D02*
X111857143Y-82538628D01*
X111857143Y-82538628D02*
X111904762Y-82443390D01*
X111904762Y-82443390D02*
X111952381Y-82395771D01*
X111952381Y-82395771D02*
X112047619Y-82348152D01*
X112047619Y-82348152D02*
X112190476Y-82348152D01*
X112190476Y-82348152D02*
X112285714Y-82395771D01*
X112285714Y-82395771D02*
X112333333Y-82443390D01*
X112333333Y-82443390D02*
X112380952Y-82538628D01*
X112380952Y-82538628D02*
X112380952Y-82824342D01*
X112380952Y-82824342D02*
X112333333Y-82919580D01*
X112333333Y-82919580D02*
X112285714Y-82967200D01*
X112285714Y-82967200D02*
X112190476Y-83014819D01*
X112190476Y-83014819D02*
X112047619Y-83014819D01*
X112714286Y-82348152D02*
X112904762Y-83014819D01*
X112904762Y-83014819D02*
X113095238Y-82538628D01*
X113095238Y-82538628D02*
X113285714Y-83014819D01*
X113285714Y-83014819D02*
X113476190Y-82348152D01*
X114238095Y-82967200D02*
X114142857Y-83014819D01*
X114142857Y-83014819D02*
X113952381Y-83014819D01*
X113952381Y-83014819D02*
X113857143Y-82967200D01*
X113857143Y-82967200D02*
X113809524Y-82871961D01*
X113809524Y-82871961D02*
X113809524Y-82491009D01*
X113809524Y-82491009D02*
X113857143Y-82395771D01*
X113857143Y-82395771D02*
X113952381Y-82348152D01*
X113952381Y-82348152D02*
X114142857Y-82348152D01*
X114142857Y-82348152D02*
X114238095Y-82395771D01*
X114238095Y-82395771D02*
X114285714Y-82491009D01*
X114285714Y-82491009D02*
X114285714Y-82586247D01*
X114285714Y-82586247D02*
X113809524Y-82681485D01*
X114714286Y-83014819D02*
X114714286Y-82348152D01*
X114714286Y-82538628D02*
X114761905Y-82443390D01*
X114761905Y-82443390D02*
X114809524Y-82395771D01*
X114809524Y-82395771D02*
X114904762Y-82348152D01*
X114904762Y-82348152D02*
X115000000Y-82348152D01*
X116095239Y-83014819D02*
X116095239Y-82348152D01*
X116095239Y-82014819D02*
X116047620Y-82062438D01*
X116047620Y-82062438D02*
X116095239Y-82110057D01*
X116095239Y-82110057D02*
X116142858Y-82062438D01*
X116142858Y-82062438D02*
X116095239Y-82014819D01*
X116095239Y-82014819D02*
X116095239Y-82110057D01*
X116571429Y-82348152D02*
X116571429Y-83014819D01*
X116571429Y-82443390D02*
X116619048Y-82395771D01*
X116619048Y-82395771D02*
X116714286Y-82348152D01*
X116714286Y-82348152D02*
X116857143Y-82348152D01*
X116857143Y-82348152D02*
X116952381Y-82395771D01*
X116952381Y-82395771D02*
X117000000Y-82491009D01*
X117000000Y-82491009D02*
X117000000Y-83014819D01*
D11*
%TO.C,J4*%
X122000000Y-82090000D02*
X119590000Y-82090000D01*
X119590000Y-82090000D02*
X119590000Y-84500000D01*
X125910000Y-82390000D02*
X119890000Y-82390000D01*
X119890000Y-82390000D02*
X119890000Y-88500000D01*
X126810000Y-85000000D02*
X125910000Y-85000000D01*
X125910000Y-85000000D02*
X125910000Y-82390000D01*
X126810000Y-88500000D02*
X126810000Y-85000000D01*
X126810000Y-88500000D02*
X126810000Y-92000000D01*
X126810000Y-92000000D02*
X125910000Y-92000000D01*
X125910000Y-92000000D02*
X125910000Y-94610000D01*
X125910000Y-94610000D02*
X119890000Y-94610000D01*
X119890000Y-94610000D02*
X119890000Y-88500000D01*
%TO.C,peltier left positive*%
X102440000Y-83200000D02*
X100200000Y-83200000D01*
X100200000Y-83200000D02*
X100200000Y-85200000D01*
X108560000Y-83440000D02*
X100440000Y-83440000D01*
X108560000Y-83440000D02*
X108560000Y-93560000D01*
X106500000Y-83440000D02*
X106500000Y-93560000D01*
X102500000Y-83440000D02*
X102500000Y-93560000D01*
X100440000Y-83440000D02*
X100440000Y-93560000D01*
X103524000Y-89820000D02*
X103431000Y-89726000D01*
X103284000Y-89990000D02*
X103226000Y-89931000D01*
X105775000Y-92070000D02*
X105716000Y-92011000D01*
X105569000Y-92275000D02*
X105476000Y-92181000D01*
X108560000Y-93560000D02*
X100440000Y-93560000D01*
X103710911Y-84516047D02*
G75*
G02*
X105289000Y-84516000I789089J-1483948D01*
G01*
X105983953Y-85210911D02*
G75*
G02*
X105984000Y-86789000I-1483948J-789089D01*
G01*
X102819550Y-86029383D02*
G75*
G02*
X103016000Y-85211000I1680445J29385D01*
G01*
X103016648Y-86788712D02*
G75*
G02*
X102820000Y-86000000I1483352J788712D01*
G01*
X105289089Y-87483953D02*
G75*
G02*
X103711000Y-87484000I-789089J1483953D01*
G01*
X106180000Y-91000000D02*
G75*
G02*
X102820000Y-91000000I-1680000J0D01*
G01*
X102820000Y-91000000D02*
G75*
G02*
X106180000Y-91000000I1680000J0D01*
G01*
%TO.C,battery2*%
X108700000Y-101560000D02*
X108700000Y-103800000D01*
X108700000Y-103800000D02*
X110700000Y-103800000D01*
X108940000Y-95440000D02*
X108940000Y-103560000D01*
X108940000Y-95440000D02*
X119060000Y-95440000D01*
X108940000Y-97500000D02*
X119060000Y-97500000D01*
X108940000Y-101500000D02*
X119060000Y-101500000D01*
X108940000Y-103560000D02*
X119060000Y-103560000D01*
X115320000Y-100476000D02*
X115226000Y-100569000D01*
X115490000Y-100716000D02*
X115431000Y-100774000D01*
X117570000Y-98225000D02*
X117511000Y-98284000D01*
X117775000Y-98431000D02*
X117681000Y-98524000D01*
X119060000Y-95440000D02*
X119060000Y-103560000D01*
X110016047Y-100289089D02*
G75*
G02*
X110016000Y-98711000I1483948J789089D01*
G01*
X110710911Y-98016047D02*
G75*
G02*
X112289000Y-98016000I789089J-1483948D01*
G01*
X111529383Y-101180450D02*
G75*
G02*
X110711000Y-100984000I-29385J1680445D01*
G01*
X112288712Y-100983352D02*
G75*
G02*
X111500000Y-101180000I-788712J1483352D01*
G01*
X112983953Y-98710911D02*
G75*
G02*
X112984000Y-100289000I-1483953J-789089D01*
G01*
X118180000Y-99500000D02*
G75*
G02*
X114820000Y-99500000I-1680000J0D01*
G01*
X114820000Y-99500000D02*
G75*
G02*
X118180000Y-99500000I1680000J0D01*
G01*
%TO.C,power in*%
X119300000Y-75440000D02*
X119300000Y-73200000D01*
X119300000Y-73200000D02*
X117300000Y-73200000D01*
X119060000Y-81560000D02*
X119060000Y-73440000D01*
X119060000Y-81560000D02*
X108940000Y-81560000D01*
X119060000Y-79500000D02*
X108940000Y-79500000D01*
X119060000Y-75500000D02*
X108940000Y-75500000D01*
X119060000Y-73440000D02*
X108940000Y-73440000D01*
X112680000Y-76524000D02*
X112774000Y-76431000D01*
X112510000Y-76284000D02*
X112569000Y-76226000D01*
X110430000Y-78775000D02*
X110489000Y-78716000D01*
X110225000Y-78569000D02*
X110319000Y-78476000D01*
X108940000Y-81560000D02*
X108940000Y-73440000D01*
X117983953Y-76710911D02*
G75*
G02*
X117984000Y-78289000I-1483948J-789089D01*
G01*
X117289089Y-78983953D02*
G75*
G02*
X115711000Y-78984000I-789089J1483948D01*
G01*
X116470617Y-75819550D02*
G75*
G02*
X117289000Y-76016000I29385J-1680445D01*
G01*
X115711288Y-76016648D02*
G75*
G02*
X116500000Y-75820000I788712J-1483352D01*
G01*
X115016047Y-78289089D02*
G75*
G02*
X115016000Y-76711000I1483953J789089D01*
G01*
X113180000Y-77500000D02*
G75*
G02*
X109820000Y-77500000I-1680000J0D01*
G01*
X109820000Y-77500000D02*
G75*
G02*
X113180000Y-77500000I1680000J0D01*
G01*
%TD*%
M02*
